<svg id="Layer_1" enable-background="new 0 0 512 512" height="512" viewBox="0 0 512 512" width="512"
     xmlns="http://www.w3.org/2000/svg">
    <g id="XMLID_1105_">
        <g id="XMLID_310_">
            <path id="XMLID_313_"
                  d="m474.191 240.55c17.255-25.452 20.761-57.701 9.377-86.267-18.216-45.709-49.372-84.464-90.099-112.077-40.728-27.611-88.263-42.206-137.469-42.206s-96.741 14.595-137.469 42.207-71.884 66.367-90.1 112.077c-11.384 28.565-7.878 60.814 9.377 86.266 7.309 10.781 16.669 19.712 27.363 26.437-21.287 35.855-30.845 77.985-26.983 119.822 4.25 46.047 24.651 89.468 57.445 122.261 1.875 1.875 4.419 2.929 7.071 2.929h306.59c2.652 0 5.196-1.054 7.071-2.929 32.794-32.794 53.195-76.214 57.445-122.262 3.862-41.837-5.697-83.967-26.983-119.822 10.695-6.724 20.055-15.655 27.364-26.436zm-81.799-161.856c0 13.203-10.741 23.944-23.944 23.944s-23.944-10.741-23.944-23.944 10.741-23.944 23.944-23.944 23.944 10.741 23.944 23.944zm-178.644-37.031c0 7.69-6.257 13.947-13.947 13.947s-13.947-6.257-13.947-13.947 6.256-13.947 13.947-13.947 13.947 6.256 13.947 13.947zm-131.479 60.16c18.566 1.859 33.111 17.572 33.111 36.62 0 20.294-16.511 36.805-36.805 36.805-12.361 0-23.679-6.118-30.484-16.198 8.699-21.07 20.277-40.27 34.178-57.227zm229.731 310.458v1.859h-46v-56.947c26.121 4.731 46 27.624 46 55.088zm-66 1.86h-46v-1.859c0-27.464 19.879-50.357 46-55.088zm-46 20h46v57.859h-46zm66 57.859v-57.859h46v57.859zm139.088 0h-73.088v-79.719c0-41.907-34.093-76-76-76s-76 34.093-76 76v79.719h-73.087c-55.852-58.458-65.425-147.554-23.699-216.234 9.893 3.544 20.446 5.431 31.261 5.431h96.172c5.523 0 10-4.477 10-10s-4.477-10-10-10h-96.172c-24.47 0-46.38-11.616-60.112-31.871-9.711-14.324-13.887-30.849-12.3-47.338 10.042 8.434 22.868 13.259 36.512 13.259 31.322 0 56.805-25.483 56.805-56.805 0-24.646-15.782-45.667-37.767-53.513 19.715-19.581 42.896-35.293 68.387-46.354-.092 1.018-.147 2.046-.147 3.087 0 18.719 15.229 33.947 33.947 33.947 18.719 0 33.947-15.229 33.947-33.947 0-7.41-2.394-14.269-6.439-19.857 9.421-1.188 18.997-1.805 28.692-1.805 32.651 0 63.978 6.915 92.366 19.626-14.156 7.306-23.863 22.07-23.863 39.068 0 24.231 19.713 43.944 43.944 43.944 22.849 0 41.673-17.531 43.747-39.847 22.489 21.731 40.641 48.399 52.795 78.897 9.059 22.731 6.379 47.385-7.353 67.639-13.731 20.254-35.642 31.871-60.112 31.871h-96.878c-5.523 0-10 4.477-10 10s4.477 10 10 10h96.878c10.815 0 21.368-1.887 31.261-5.431 41.727 68.679 32.154 157.775-23.697 216.233z"/>
            <path id="XMLID_331_"
                  d="m311.107 168.12c0-30.386-24.721-55.107-55.107-55.107s-55.107 24.721-55.107 55.107 24.721 55.107 55.107 55.107 55.107-24.721 55.107-55.107zm-90.214 0c0-19.358 15.749-35.107 35.107-35.107s35.107 15.749 35.107 35.107-15.749 35.107-35.107 35.107-35.107-15.749-35.107-35.107z"/>
            <path id="XMLID_335_"
                  d="m383.486 229.229c18.718 0 33.947-15.229 33.947-33.947s-15.229-33.947-33.947-33.947c-18.719 0-33.947 15.229-33.947 33.947s15.228 33.947 33.947 33.947zm0-47.895c7.69 0 13.947 6.256 13.947 13.947s-6.256 13.947-13.947 13.947-13.947-6.257-13.947-13.947 6.257-13.947 13.947-13.947z"/>
            <path id="XMLID_964_"
                  d="m356.5 368.281v22c0 5.523 4.477 10 10 10h44c5.523 0 10-4.477 10-10v-22c0-17.645-14.355-32-32-32s-32 14.355-32 32zm44 0v12h-24v-12c0-6.617 5.383-12 12-12s12 5.384 12 12z"/>
            <path id="XMLID_1238_"
                  d="m123.5 336.281c-17.645 0-32 14.355-32 32v22c0 5.523 4.477 10 10 10h44c5.523 0 10-4.477 10-10v-22c0-17.645-14.355-32-32-32zm12 44h-24v-12c0-6.617 5.383-12 12-12s12 5.383 12 12z"/>
            <path id="XMLID_1416_"
                  d="m159.67 203.23c-2.64 0-5.21 1.06-7.07 2.93-1.87 1.86-2.93 4.43-2.93 7.07 0 2.63 1.06 5.21 2.93 7.07 1.86 1.86 4.43 2.93 7.07 2.93 2.63 0 5.21-1.07 7.07-2.93s2.93-4.44 2.93-7.07c0-2.64-1.07-5.21-2.93-7.07-1.86-1.87-4.44-2.93-7.07-2.93z"/>
            <path id="XMLID_1436_"
                  d="m255.65 260.85c-2.64 0-5.21 1.06-7.07 2.92s-2.93 4.44-2.93 7.08c0 2.63 1.07 5.21 2.93 7.07s4.43 2.92 7.07 2.92c2.63 0 5.21-1.06 7.07-2.92s2.93-4.44 2.93-7.07c0-2.64-1.07-5.22-2.93-7.08s-4.44-2.92-7.07-2.92z"/>
        </g>
    </g>
</svg>