<svg id="Layer_1" enable-background="new 0 0 512 512" height="512" viewBox="0 0 512 512" width="512" xmlns="http://www.w3.org/2000/svg"><g id="XMLID_1390_"><path id="XMLID_1378_" d="m461.667 350h-411.334c-11.229 0-20.333 9.104-20.333 20.333v71.333c0 11.23 9.104 20.334 20.333 20.334h411.333c11.23 0 20.333-9.104 20.333-20.333v-71.333c.001-11.23-9.103-20.334-20.332-20.334z" fill="#ffcd69"/><path id="XMLID_1347_" d="m42 350v-176.438 4.08l26.296 26.312c29.211 29.229 76.589 29.229 105.8 0l81.904-81.954 81.904 81.955c29.211 29.229 76.589 29.229 105.8 0l26.296-26.313v-4.08 176.438z" fill="#ffe6b4"/><path id="XMLID_1251_" d="m221.303 233.888 34.697-20.032 34.697 20.032v50.08l-34.697 20.032-34.697-20.032z" fill="#ff7b79"/><g fill="#ffcd69"><circle id="XMLID_1190_" cx="42" cy="141.562" r="32"/><circle id="XMLID_1189_" cx="470" cy="141.562" r="32"/><circle id="XMLID_1186_" cx="256.127" cy="86" r="36"/></g><g id="XMLID_431_"><path id="XMLID_432_" d="m145 396c-2.63 0-5.21 1.07-7.07 2.93s-2.93 4.44-2.93 7.07 1.07 5.21 2.93 7.07 4.44 2.93 7.07 2.93 5.21-1.07 7.07-2.93 2.93-4.44 2.93-7.07-1.07-5.21-2.93-7.07-4.44-2.93-7.07-2.93z"/><path id="XMLID_977_" d="m256 396c-2.63 0-5.21 1.07-7.07 2.93s-2.93 4.44-2.93 7.07 1.07 5.21 2.93 7.07 4.44 2.93 7.07 2.93 5.21-1.07 7.07-2.93 2.93-4.44 2.93-7.07-1.07-5.21-2.93-7.07-4.44-2.93-7.07-2.93z"/><path id="XMLID_978_" d="m367 396c-2.63 0-5.21 1.07-7.07 2.93s-2.93 4.44-2.93 7.07 1.07 5.21 2.93 7.07 4.44 2.93 7.07 2.93 5.21-1.07 7.07-2.93 2.93-4.44 2.93-7.07-1.07-5.21-2.93-7.07-4.44-2.93-7.07-2.93z"/><path id="XMLID_981_" d="m512 141.562c0-23.159-18.841-42-42-42s-42 18.841-42 42c0 17.257 10.465 32.111 25.38 38.564l-16.75 16.76c-12.238 12.246-28.513 18.99-45.827 18.99-17.313 0-33.588-6.744-45.826-18.99l-69.243-69.285c15.583-7.375 26.392-23.247 26.392-41.601 0-25.364-20.636-46-46-46s-46 20.636-46 46c0 18.286 10.727 34.111 26.217 41.521l-69.322 69.364c-12.238 12.246-28.513 18.99-45.826 18.99s-33.588-6.744-45.827-18.99l-16.749-16.76c14.916-6.452 25.381-21.306 25.381-38.563 0-23.159-18.841-42-42-42s-42 18.841-42 42c0 19.713 13.655 36.288 32 40.787v163.839c-7.286 5.545-12 14.304-12 24.146v71.333c0 16.726 13.607 30.333 30.333 30.333h411.333c16.727 0 30.334-13.607 30.334-30.333v-71.333c0-9.842-4.714-18.6-12-24.146v-163.839c18.345-4.499 32-21.074 32-40.787zm-42-22c12.131 0 22 9.869 22 22s-9.869 22-22 22-22-9.869-22-22 9.869-22 22-22zm-213.873-59.562c14.336 0 26 11.664 26 26s-11.664 26-26 26-26-11.664-26-26 11.664-26 26-26zm-236.127 81.562c0-12.131 9.869-22 22-22s22 9.869 22 22-9.869 22-22 22-22-9.869-22-22zm452 300.105c0 5.698-4.636 10.333-10.333 10.333h-411.334c-5.697 0-10.333-4.636-10.333-10.333v-71.333c0-5.698 4.636-10.334 10.333-10.334h160.793c5.523 0 10-4.477 10-10s-4.477-10-10-10h-159.126v-138.205l9.223 9.229c16.017 16.026 37.315 24.853 59.973 24.853 22.657 0 43.956-8.826 59.973-24.853l74.831-74.878 74.831 74.877c16.017 16.026 37.315 24.853 59.973 24.853s43.957-8.826 59.973-24.853l9.223-9.229v138.206h-158.873c-5.523 0-10 4.477-10 10s4.477 10 10 10h160.54c5.698 0 10.333 4.636 10.333 10.333z"/><path id="XMLID_1069_" d="m256 314c1.727 0 3.453-.447 5-1.34l34.697-20.032c3.094-1.786 5-5.087 5-8.66v-50.08c0-3.573-1.906-6.874-5-8.66l-34.697-20.033c-3.094-1.786-6.906-1.786-10 0l-34.697 20.032c-3.094 1.786-5 5.087-5 8.66v50.08c0 3.573 1.906 6.874 5 8.66l34.697 20.033c1.547.893 3.273 1.34 5 1.34zm-24.697-74.339 24.697-14.259 24.697 14.259v38.533l-24.697 14.259-24.697-14.259z"/><path id="XMLID_1113_" d="m256.13 340c-2.63 0-5.21 1.07-7.07 2.93s-2.93 4.44-2.93 7.07 1.07 5.21 2.93 7.07 4.44 2.93 7.07 2.93 5.21-1.07 7.07-2.93 2.93-4.44 2.93-7.07-1.07-5.21-2.93-7.07-4.44-2.93-7.07-2.93z"/></g></g></svg>