<svg id="Layer_1" enable-background="new 0 0 512 512" height="512" viewBox="0 0 512 512" width="512" xmlns="http://www.w3.org/2000/svg"><g id="XMLID_205_"><path id="XMLID_208_" d="m502 219h-44v-47.021c14.168-7.793 23.794-22.864 23.794-40.145 0-25.247-20.54-45.786-45.786-45.786-2.624 0-5.242.23-7.834.688-3.433-3.724-7.278-7.007-11.417-9.837-39.445-48.881-97.959-76.899-160.757-76.899-111.541 0-202.697 88.898-206.371 199.562-1.279-.109-2.559-.183-3.843-.183-25.246 0-45.786 20.54-45.786 45.787v256.834c0 5.523 4.477 10 10 10h492c5.523 0 10-4.477 10-10v-273c0-5.523-4.477-10-10-10zm-85.491-115.048c2.593 3.474 7.129 4.879 11.23 3.486 2.713-.922 5.495-1.389 8.269-1.389 14.219 0 25.786 11.568 25.786 25.786s-11.567 25.786-25.786 25.786c-2.773 0-5.556-.467-8.269-1.389-4.104-1.395-8.638.013-11.23 3.486-8.912 11.937-22.551 18.783-37.422 18.783-14.647 0-28.165-6.69-37.086-18.355-1.924-2.515-4.881-3.925-7.944-3.925-.92 0-1.85.127-2.764.39-2.333.671-4.73 1.011-7.125 1.011-14.219 0-25.786-11.568-25.786-25.786s11.567-25.786 25.786-25.786c2.396 0 4.793.34 7.124 1.011 3.956 1.138 8.208-.264 10.709-3.535 8.921-11.665 22.439-18.355 37.086-18.355 14.871-.002 28.51 6.844 37.422 18.781zm-119.767-8.758c-13.02-4.774-26.694-7.194-40.742-7.194-59.874 0-109.511 44.638-117.399 102.381-6.859-4.73-14.563-8.159-22.691-10.081 12.406-66.875 71.173-116.3 140.09-116.3 26.923 0 52.701 7.383 75.234 21.45-.326.338-.662.662-.982 1.008-2.018-.272-4.05-.409-6.085-.409-10.278-.001-19.776 3.405-27.425 9.145zm-40.742-75.194c45.329 0 88.183 16.174 121.758 45.203-10.488.204-20.533 2.805-29.519 7.501-27.179-18.795-58.944-28.704-92.239-28.704-79.29 0-146.808 57.38-160.129 134.692-8.902.632-17.434 2.989-25.193 6.906 10.424-93.033 89.552-165.598 185.322-165.598zm-210.214 199.379c2.396 0 4.793.34 7.124 1.011 3.955 1.139 8.208-.265 10.709-3.535 8.921-11.665 22.438-18.355 37.086-18.355 14.871 0 28.511 6.846 37.422 18.783 2.593 3.473 7.13 4.88 11.23 3.486 2.714-.922 5.496-1.389 8.27-1.389 14.219 0 25.786 11.568 25.786 25.786s-11.567 25.786-25.786 25.786c-2.774 0-5.556-.467-8.269-1.389-4.104-1.395-8.638.013-11.23 3.486-8.911 11.937-22.551 18.783-37.422 18.783-14.648 0-28.165-6.69-37.086-18.355-1.923-2.515-4.881-3.926-7.944-3.926-.92 0-1.85.127-2.764.39-2.333.671-4.73 1.011-7.125 1.011-14.22 0-25.787-11.568-25.787-25.786s11.567-25.787 25.786-25.787zm-25.786 272.621v-209.024c7.349 5.028 16.229 7.976 25.786 7.976 2.035 0 4.067-.137 6.085-.409.693.749 1.407 1.472 2.129 2.185v161.272c0 5.523 4.477 10 10 10h144c17.492 0 32.253 11.884 36.655 28zm226-33.784c-10.186-8.852-23.477-14.216-38-14.216h-134v-137.699c8.28 3.613 17.33 5.531 26.705 5.531 18.647 0 36.541-7.957 49.087-21.567 2.592.458 5.21.688 7.834.688 25.247 0 45.786-20.54 45.786-45.786 0-25.202-20.468-45.711-45.654-45.783.543-7.561 1.949-14.886 4.108-21.883h46.134c20.953 0 38 17.047 38 38zm10.009-275.223c-10.443-15.373-28.065-25.493-48.009-25.493h-37.421c17.02-29.557 48.934-49.5 85.421-49.5 9.248 0 18.299 1.257 27.033 3.748-2.975 6.069-4.652 12.885-4.652 20.087 0 10.533 3.584 20.218 9.584 27.938-13.171 3.795-24.425 12.145-31.956 23.22zm235.991 309.007h-224.655c4.402-16.116 19.163-28 36.655-28h144c5.523 0 10-4.477 10-10v-74.25c0-5.523-4.477-10-10-10s-10 4.477-10 10v64.25h-134c-14.527 0-27.813 5.381-38 14.238v-242.738c0-20.953 17.047-38 38-38h26.533c12.571 13.419 29.916 21 48.553 21 18.647 0 36.54-7.957 49.087-21.567 2.592.457 5.21.688 7.834.688.668 0 1.331-.022 1.992-.051v112.18c0 5.523 4.477 10 10 10s10-4.477 10-10v-50.75h34v253z"/><path id="XMLID_244_" d="m397.667 228.75h-91.333c-5.523 0-10 4.477-10 10s4.477 10 10 10h91.333c5.523 0 10-4.477 10-10s-4.478-10-10-10z"/><path id="XMLID_245_" d="m397.667 276.75h-91.333c-5.523 0-10 4.477-10 10s4.477 10 10 10h91.333c5.523 0 10-4.477 10-10s-4.478-10-10-10z"/><path id="XMLID_246_" d="m397.667 324.75h-91.333c-5.523 0-10 4.477-10 10s4.477 10 10 10h91.333c5.523 0 10-4.477 10-10s-4.478-10-10-10z"/><path id="XMLID_247_" d="m397.667 372.75h-91.333c-5.523 0-10 4.477-10 10s4.477 10 10 10h91.333c5.523 0 10-4.477 10-10s-4.478-10-10-10z"/><path id="XMLID_248_" d="m114.333 344.75h91.333c5.523 0 10-4.477 10-10s-4.477-10-10-10h-91.333c-5.523 0-10 4.477-10 10s4.478 10 10 10z"/><path id="XMLID_249_" d="m215.667 382.75c0-5.523-4.477-10-10-10h-91.333c-5.523 0-10 4.477-10 10s4.477 10 10 10h91.333c5.522 0 10-4.477 10-10z"/><path id="XMLID_250_" d="m448 324.75c-2.63 0-5.21 1.07-7.07 2.93s-2.93 4.44-2.93 7.07 1.07 5.21 2.93 7.07 4.44 2.93 7.07 2.93 5.21-1.07 7.07-2.93 2.93-4.44 2.93-7.07-1.07-5.21-2.93-7.07-4.44-2.93-7.07-2.93z"/></g></svg>