<svg height="512pt" viewBox="0 0 512.0123 512" width="512pt" xmlns="http://www.w3.org/2000/svg"><path d="m446.417969 320.722656c-9.566407-13.8125-25.296875-22.050781-42.097657-22.050781h-82.472656c-11.382812.019531-22.433594 3.816406-31.429687 10.785156l-8.804688 6.828125v-179.746094h25.597657c9.425781 0 17.066406-7.640624 17.066406-17.066406v-17.066406c0-9.425781-7.640625-17.066406-17.066406-17.066406h-34.132813v-59.734375c0-14.136719-11.460937-25.5976565-25.597656-25.5976565h-17.066407c-14.140624 0-25.601562 11.4609375-25.601562 25.5976565v59.734375h-34.132812c-9.425782 0-17.066407 7.640625-17.066407 17.066406v17.066406c0 9.425782 7.640625 17.066406 17.066407 17.066406h25.597656v209.492188c-9.597656-1.839844-19.527344-.910156-28.621094 2.679688l-96.015625 38.402343c-11.511719 4.5625-20.960937 13.179688-26.5625 24.226563l-43.265625 75.945312c-2.65625 5.292969-2.378906 11.582032.734375 16.621094 3.109375 5.039062 8.609375 8.105469 14.53125 8.101562h477.867187c9.425782 0 17.066407-7.644531 17.066407-17.066406v-63.472656c.015625-10.417969-3.160157-20.589844-9.097657-29.148438zm-224.539063-295.117187c0-4.710938 3.820313-8.53125 8.535156-8.53125h17.066407c4.710937 0 8.53125 3.820312 8.53125 8.53125v59.734375h-34.132813zm-51.199218 76.800781h136.53125v17.066406h-136.53125zm59.734374 34.132812v85.332032c0 4.714844 3.820313 8.535156 8.53125 8.535156 4.714844 0 8.535157-3.820312 8.535157-8.535156v-85.332032h17.066406v193.042969l-17.066406 13.277344v-78.320313c0-4.710937-3.820313-8.53125-8.535157-8.53125-4.710937 0-8.53125 3.820313-8.53125 8.53125v91.589844l-2.929687 2.277344h-.347656l-13.792969-6.273438v-215.59375zm-213.558593 358.808594 43.265625-75.945312c3.742187-7.476563 10.097656-13.316406 17.859375-16.417969l96.019531-38.398437c8.644531-3.441407 18.320312-3.222657 26.800781.605468l.640625.296875h.09375l60.648438 27.570313c8.152344 3.675781 14.527344 10.421875 17.730468 18.773437l32 83.203125zm478.089843-.40625-164.753906.144532-34.34375-89.3125c-4.792968-12.550782-14.355468-22.699219-26.601562-28.226563l-24.34375-11.09375 55.996094-43.519531c5.996093-4.648438 13.363281-7.179688 20.949218-7.195313h82.472656c11.203126 0 21.691407 5.496094 28.066407 14.703125l56.492187 81.589844c3.957032 5.707031 6.074219 12.492188 6.066406 19.4375zm0 0"/><path d="m246.070312 418.257812-35.761718 5.972657c-9.179688 1.539062-18.5625 1.382812-27.683594-.460938l-69.972656-13.992187c-3.035156-.71875-6.21875.28125-8.304688 2.597656-2.085937 2.320312-2.742187 5.589844-1.707031 8.535156 1.03125 2.941406 3.589844 5.085938 6.667969 5.59375l69.972656 14c11.15625 2.238282 22.628906 2.421875 33.851562.546875l35.769532-5.972656c4.550781-.875 7.570312-5.21875 6.808594-9.789063-.765626-4.570312-5.035157-7.691406-9.621094-7.039062zm0 0"/><path d="m416.4375 367.109375-13.960938 2.792969c-16.746093 3.3125-34.121093.984375-49.40625-6.625l-42.042968-21.085938c-4.21875-2.105468-9.347656-.394531-11.453125 3.824219s-.394531 9.34375 3.824219 11.453125l42.078124 21.035156c18.679688 9.300782 39.917969 12.144532 60.390626 8.085938l13.984374-2.753906c4.476563-1.058594 7.308594-5.46875 6.40625-9.980469-.898437-4.507813-5.214843-7.492188-9.75-6.746094zm0 0"/><path d="m238.945312 460.804688c0 4.714843-3.820312 8.535156-8.53125 8.535156-4.714843 0-8.535156-3.820313-8.535156-8.535156 0-4.710938 3.820313-8.53125 8.535156-8.53125 4.710938 0 8.53125 3.820312 8.53125 8.53125zm0 0"/><path d="m204.8125 469.339844c0 4.710937-3.820312 8.53125-8.535156 8.53125-4.710938 0-8.53125-3.820313-8.53125-8.53125 0-4.714844 3.820312-8.535156 8.53125-8.535156 4.714844 0 8.535156 3.820312 8.535156 8.535156zm0 0"/><path d="m273.078125 469.339844c0 4.710937-3.820313 8.53125-8.53125 8.53125-4.714844 0-8.535156-3.820313-8.535156-8.53125 0-4.714844 3.820312-8.535156 8.535156-8.535156 4.710937 0 8.53125 3.820312 8.53125 8.535156zm0 0"/><path d="m460.8125 435.207031c0 4.710938-3.820312 8.53125-8.535156 8.53125-4.710938 0-8.53125-3.820312-8.53125-8.53125 0-4.714843 3.820312-8.535156 8.53125-8.535156 4.714844 0 8.535156 3.820313 8.535156 8.535156zm0 0"/><path d="m443.746094 460.804688c0 4.714843-3.820313 8.535156-8.535156 8.535156-4.710938 0-8.53125-3.820313-8.53125-8.535156 0-4.710938 3.820312-8.53125 8.53125-8.53125 4.714843 0 8.535156 3.820312 8.535156 8.53125zm0 0"/><path d="m477.878906 469.339844c0 4.710937-3.820312 8.53125-8.535156 8.53125-4.710938 0-8.53125-3.820313-8.53125-8.53125 0-4.714844 3.820312-8.535156 8.53125-8.535156 4.714844 0 8.535156 3.820312 8.535156 8.535156zm0 0"/><path d="m332.8125 213.339844c-4.714844 0-8.535156 3.820312-8.535156 8.53125v8.535156c0 4.710938 3.820312 8.535156 8.535156 8.535156 4.710938 0 8.53125-3.824218 8.53125-8.535156v-8.535156c0-4.710938-3.820312-8.53125-8.53125-8.53125zm0 0"/><path d="m349.878906 256.007812h8.535156c4.710938 0 8.53125-3.820312 8.53125-8.535156 0-4.710937-3.820312-8.53125-8.53125-8.53125h-8.535156c-4.710937 0-8.535156 3.820313-8.535156 8.53125 0 4.714844 3.824219 8.535156 8.535156 8.535156zm0 0"/><path d="m332.8125 281.605469c4.710938 0 8.53125-3.820313 8.53125-8.53125v-8.535157c0-4.710937-3.820312-8.53125-8.53125-8.53125-4.714844 0-8.535156 3.820313-8.535156 8.53125v8.535157c0 4.710937 3.820312 8.53125 8.535156 8.53125zm0 0"/><path d="m315.746094 238.941406h-8.535156c-4.710938 0-8.53125 3.820313-8.53125 8.53125 0 4.714844 3.820312 8.535156 8.53125 8.535156h8.535156c4.710937 0 8.53125-3.820312 8.53125-8.535156 0-4.710937-3.820313-8.53125-8.53125-8.53125zm0 0"/><path d="m145.078125 145.074219c-4.710937 0-8.53125 3.820312-8.53125 8.53125v8.535156c0 4.710937 3.820313 8.53125 8.53125 8.53125 4.714844 0 8.535156-3.820313 8.535156-8.53125v-8.535156c0-4.710938-3.820312-8.53125-8.535156-8.53125zm0 0"/><path d="m162.144531 187.738281h8.535157c4.710937 0 8.53125-3.820312 8.53125-8.53125 0-4.714843-3.820313-8.535156-8.53125-8.535156h-8.535157c-4.710937 0-8.53125 3.820313-8.53125 8.535156 0 4.710938 3.820313 8.53125 8.53125 8.53125zm0 0"/><path d="m136.546875 204.804688c0 4.714843 3.820313 8.535156 8.53125 8.535156 4.714844 0 8.535156-3.820313 8.535156-8.535156v-8.53125c0-4.714844-3.820312-8.535157-8.535156-8.535157-4.710937 0-8.53125 3.820313-8.53125 8.535157zm0 0"/><path d="m128.011719 170.671875h-8.53125c-4.714844 0-8.535157 3.820313-8.535157 8.535156 0 4.710938 3.820313 8.53125 8.535157 8.53125h8.53125c4.714843 0 8.535156-3.820312 8.535156-8.53125 0-4.714843-3.820313-8.535156-8.535156-8.535156zm0 0"/></svg>